HIERARCHY
ROOT hip
{
	OFFSET 0.000000 0.000000 0.000000 
	CHANNELS 6 Xposition Yposition Zposition Xrotation Zrotation Yrotation
	JOINT abdomen
	{
		OFFSET 0.000000 3.402643 0.000000 
		CHANNELS 3 Xrotation Zrotation Yrotation
		JOINT chest
		{
			OFFSET 0.000000 8.438565 -0.680529 
			CHANNELS 3 Xrotation Zrotation Yrotation
			JOINT neck
			{
				OFFSET 0.000000 10.207942 -0.272212 
				CHANNELS 3 Xrotation Zrotation Yrotation
				JOINT head
				{
					OFFSET 0.000000 3.130431 0.000000 
					CHANNELS 3 Xrotation Zrotation Yrotation
					End Site
					{
						OFFSET 0.000000 3.130435 0.000000 
					}
				}
			}
			JOINT lCollar
			{
				OFFSET 3.470700 6.669187 -0.816635 
				CHANNELS 3 Yrotation Zrotation Xrotation
				JOINT lShldr
				{
					OFFSET 3.198488 0.000000 0.000000 
					CHANNELS 3 Zrotation Yrotation Xrotation
					JOINT lForeArm
					{
						OFFSET 10.139888 0.000000 0.000000 
						CHANNELS 3 Yrotation Zrotation Xrotation
						JOINT lHand
						{
							OFFSET 8.370511 0.000000 0.000000 
							CHANNELS 3 Zrotation Yrotation Xrotation
							End Site
							{
								OFFSET 4.083176 0.000000 0.000000 
							}
						}
					}
				}
			}
			JOINT rCollar
			{
				OFFSET -3.470700 6.669187 -0.816635 
				CHANNELS 3 Yrotation Zrotation Xrotation
				JOINT rShldr
				{
					OFFSET -3.198488 0.000000 0.000000 
					CHANNELS 3 Zrotation Yrotation Xrotation
					JOINT rForeArm
					{
						OFFSET -10.139888 0.000000 0.000000 
						CHANNELS 3 Yrotation Zrotation Xrotation
						JOINT rHand
						{
							OFFSET -8.370511 0.000000 0.000000 
							CHANNELS 3 Zrotation Yrotation Xrotation
							End Site
							{
								OFFSET -4.083176 0.000000 0.000000 
							}
						}
					}
				}
			}
		}
	}
	JOINT lThigh
	{
		OFFSET 5.308129 -1.633274 1.361059 
		CHANNELS 3 Xrotation Zrotation Yrotation
		JOINT lShin
		{
			OFFSET -2.041588 -20.007561 0.000000 
			CHANNELS 3 Xrotation Zrotation Yrotation
			JOINT lFoot
			{
				OFFSET 0.000000 -19.190928 -1.224953 
				CHANNELS 3 Xrotation Yrotation Zrotation
				End Site
				{
					OFFSET 0.000000 -2.449906 4.627600 
				}
			}
		}
	}
	JOINT rThigh
	{
		OFFSET -5.308129 -1.633274 1.361059 
		CHANNELS 3 Xrotation Zrotation Yrotation
		JOINT rShin
		{
			OFFSET 2.041588 -20.007561 0.000000 
			CHANNELS 3 Xrotation Zrotation Yrotation
			JOINT rFoot
			{
				OFFSET 0.000000 -19.190928 -1.224953 
				CHANNELS 3 Xrotation Yrotation Zrotation
				End Site
				{
					OFFSET 0.000000 -2.449906 4.627600 
				}
			}
		}
	}
}
MOTION
Frames: 13
Frame Time: 0.016667
-26.434084 32.382168 65.065895 20.629999 8.370950 -33.493099 -8.386720 5.814130 4.365490 18.358700 1.444250 2.747330 -32.087700 18.467400 -19.441700 -2.059450 16.038900 -4.946370 2.000000 -2.000000 0.000000 105.267998 162.593002 5.945450 25.068600 -0.338686 0.057987 0.044656 0.002761 -135.934998 -2.000000 2.000000 0.000000 35.548199 52.041698 111.007004 -44.004299 0.313187 0.094983 179.893005 179.871994 -4.450930 -55.337074 -2.789571 12.990200 98.908607 -3.199479 5.114317 -3.890731 -6.348366 -1.549016 -23.024542 -4.297252 -7.733570 64.668465 -0.963817 -4.084781 -23.022985 -0.748305 -1.072575 
-28.426849 32.330944 67.263565 20.959600 7.310490 -31.661699 -8.424760 6.203890 4.807350 18.250799 1.775910 2.965650 -32.731098 17.947901 -19.778799 -2.809140 15.959700 -5.498840 2.000000 -2.000000 0.000000 105.388000 155.714996 7.351890 24.316700 -0.339435 0.056357 0.045052 -0.011586 -141.061996 -2.000000 2.000000 0.000000 35.405998 42.153000 117.051003 -50.088402 0.302567 0.104871 179.893997 179.871994 -4.314210 -59.458046 -5.775994 11.349840 92.800819 -2.687098 5.171780 -6.061432 -7.854514 -2.807803 -16.538063 -3.273372 -9.054585 59.544949 -1.555163 -3.785842 -19.672886 6.477421 2.057415 
-30.588240 32.199169 69.530212 21.319300 6.363020 -29.241100 -8.154780 6.175330 4.387320 18.689600 2.488910 2.741240 -32.322201 17.981501 -19.572001 -2.838910 15.619100 -5.623750 2.000000 -2.000000 0.000000 103.348000 149.910995 4.355280 23.408501 -0.340312 0.054375 0.045581 -0.017413 -143.151993 -2.000000 2.000000 0.000000 37.658600 35.764599 118.585999 -52.305199 0.298445 0.108186 179.912003 179.901001 5.041220 -62.695503 -7.993766 11.610505 85.686661 -2.008556 5.132530 -7.434577 -7.708896 -3.600854 -9.630816 -1.638397 -8.973076 52.720699 -2.346332 -3.370198 -14.220072 15.688772 4.202517 
-32.884430 32.057400 71.848991 21.819401 5.623820 -27.186100 -7.839620 5.039300 3.404080 19.423000 2.235890 2.231190 -30.502701 18.817900 -18.278099 -2.285240 15.051800 -5.150450 2.000000 -2.000000 0.000000 100.273003 144.955002 -1.638300 22.851801 -0.340834 0.053154 0.046476 -0.024246 -145.613007 -2.000000 2.000000 0.000000 43.429501 32.110901 119.723999 -55.586399 0.292116 0.112794 179.897995 179.876007 -2.136480 -64.895935 -8.802261 14.847328 77.611618 -1.240358 5.013974 -8.424343 -7.001311 -4.220281 -2.636644 0.954290 -7.023342 43.648659 -3.147220 -2.792564 -5.604450 23.412567 3.131263 
-35.215111 31.929783 74.240898 22.609400 4.400870 -26.577299 -7.772880 5.171920 3.380800 19.578501 3.280770 2.141370 -29.075300 18.891800 -17.127800 -1.906070 14.458600 -4.795510 2.000000 -2.000000 0.000000 -85.804100 37.551998 168.912003 20.371300 -0.343013 0.047652 0.046804 -0.026298 -146.354996 -2.000000 2.000000 0.000000 49.864101 27.871401 120.744003 -62.480999 0.278018 0.121254 -0.129313 0.135739 165.294998 -65.861801 -7.594679 19.422367 69.396004 -0.481824 4.764500 -8.007245 -9.783317 -4.983305 2.807598 4.430830 -2.862548 37.825058 -4.136801 -2.320426 5.059388 23.584217 -0.752058 
-37.406830 31.730494 76.641899 23.766899 2.636900 -26.876400 -7.525900 4.127050 3.150570 20.322100 2.041000 2.061970 -27.900900 19.623400 -15.576100 -1.605410 14.105600 -4.050690 2.000000 -2.000000 0.000000 -91.090897 38.321098 159.376007 18.105700 -0.344794 0.042548 0.047062 -0.027808 -146.901993 -2.000000 2.000000 0.000000 58.049500 25.056900 122.371002 -69.404800 0.262941 0.127986 -0.151059 0.147214 156.505997 -66.059937 -5.711694 23.356699 62.048130 0.148564 4.486755 -6.401931 -14.210223 -5.438673 6.380470 8.091523 0.425464 36.464588 -4.944894 -2.175794 11.269661 14.310147 -1.249274 
-39.347473 31.550303 79.062340 25.822300 0.694459 -27.613100 -7.544680 3.939230 2.675190 20.947399 1.660120 1.857300 -27.398399 19.422300 -14.198300 -1.575380 13.659000 -3.483300 2.000000 -2.000000 0.000000 -98.485298 37.309799 147.699997 15.732600 -0.346442 0.037132 0.046191 -0.022298 -144.910004 -2.000000 2.000000 0.000000 63.727299 23.423000 124.693001 -74.951698 0.250346 0.132036 -0.159564 0.150614 153.235001 -66.670120 -3.735923 25.412874 57.553490 0.518133 4.253495 -5.434530 -14.020947 -5.384792 7.118142 10.387855 -1.874462 39.679859 -4.722213 -2.370267 9.572021 5.298985 0.172025 
-41.101070 31.345848 81.539513 27.488300 -1.316860 -28.907801 -7.565990 3.700360 1.928260 21.367300 1.083880 1.538960 -27.374901 19.821600 -13.303700 -1.644860 13.618600 -2.987870 2.000000 -2.000000 0.000000 -105.213997 34.014099 134.626999 13.115400 -0.347997 0.031084 0.044768 -0.006589 -139.274994 -2.000000 2.000000 0.000000 67.131699 21.836201 128.024994 -79.561096 0.239621 0.134462 -0.159102 0.150443 153.410004 -65.829140 -2.529209 25.146025 58.748520 0.470315 4.291364 -9.467994 -0.377733 -4.385105 5.979396 10.800768 -6.803422 46.743137 -3.923988 -2.782130 9.740987 -0.331270 0.006828 
-42.701447 31.348095 84.034317 28.055901 -2.870500 -30.259399 -7.660460 3.434230 1.296250 20.898500 0.878891 1.206560 -24.770100 18.667299 -10.162800 -0.802065 12.554200 -1.714550 2.000000 -2.000000 0.000000 -109.611000 28.886499 120.763000 10.459100 -0.349292 0.024880 0.046570 0.015101 -128.005997 -2.000000 2.000000 0.000000 68.376602 21.314899 130.542999 -81.758301 0.234447 0.135313 -0.156190 0.159098 154.524002 -63.517544 -1.925085 21.714771 63.114170 0.132034 4.490287 -14.585581 -1.448544 -4.393751 3.622510 9.474389 -10.799816 56.738567 -2.904967 -3.326544 10.050099 -3.713787 -0.390041 
-44.235985 31.351690 86.436775 27.498501 -2.876550 -31.193701 -7.614820 3.332100 0.889842 20.283001 1.992160 0.888932 -25.606300 18.627300 -9.857370 -1.081300 12.501000 -1.486520 2.000000 -2.000000 0.000000 -111.625000 23.300501 127.992996 9.189560 -0.349809 0.021895 0.045255 0.004354 -131.873001 -2.000000 2.000000 0.000000 67.314499 22.749300 131.281998 -81.123596 0.235945 0.135087 -0.160515 0.150959 152.873001 -60.577530 -2.623416 18.073805 66.614769 -0.143572 4.597941 -18.747011 -1.684958 -4.197480 -0.600125 5.768125 -13.720526 69.059570 -1.733961 -3.845854 9.727205 -5.169121 -0.745001 
-45.761990 31.165319 88.472343 26.495001 -1.564550 -31.805401 -7.706260 3.473410 0.558315 19.538000 4.374310 0.498700 -26.330601 18.448799 -9.187380 -1.322960 12.584300 -1.020030 2.000000 -2.000000 0.000000 -112.526001 18.138000 136.317001 10.879000 -0.349106 0.025865 0.045005 0.001164 -133.016006 -2.000000 2.000000 0.000000 65.109398 25.356800 131.207993 -78.428299 0.242274 0.133946 -0.167204 0.153202 150.354004 -58.631321 -3.877537 16.888945 69.627769 -0.410588 4.729733 -20.840967 1.955948 -2.453795 -6.873054 1.046970 -14.556837 82.720558 -0.517208 -4.201493 7.060988 -5.639048 -0.791239 
-47.242714 31.052309 90.604866 24.874500 0.602463 -32.269402 -8.086600 1.090580 0.355510 18.562201 2.752240 0.275396 -27.094801 18.816999 -9.298480 -1.610390 12.442900 -1.039300 2.000000 -2.000000 0.000000 -106.903999 13.564000 154.416000 13.183700 -0.347960 0.031243 0.044993 -0.010740 -140.759995 -2.000000 2.000000 0.000000 66.504501 26.716101 129.979996 -74.785698 0.250728 0.131932 -0.164340 0.152282 151.427994 -56.116375 -5.942805 17.466101 72.001373 -0.600545 4.795505 -22.590973 3.424201 -1.470969 -13.839375 -4.222202 -12.709153 94.159187 0.746691 -4.380176 5.525100 -5.398606 -0.627943 
-48.721760 31.076349 92.780746 23.298901 2.700120 -32.626801 -8.222300 0.123445 0.329198 18.101700 3.161160 0.108889 -28.772600 19.490900 -10.353100 -2.212510 12.974900 -1.335180 2.000000 -2.000000 0.000000 -102.650002 6.772180 161.117996 13.984500 -0.347512 0.033100 0.044634 0.000765 -136.647995 -2.000000 2.000000 0.000000 64.852997 28.065500 128.863998 -70.947800 0.259478 0.129235 -0.163485 0.161761 151.750000 -52.764809 -7.791676 18.324814 73.109749 -0.691624 4.820365 -23.050861 3.703983 -0.907312 -21.660206 -8.492352 -9.358890 102.801498 1.811028 -4.426309 3.019274 -4.613637 -0.640428 
